<?xml version="1.0" encoding="utf-8"?>
<!-- Generator: Adobe Illustrator 22.0.1, SVG Export Plug-In . SVG Version: 6.00 Build 0)  -->
<svg version="1.1" id="Layer_1" xmlns="http://www.w3.org/2000/svg" xmlns:xlink="http://www.w3.org/1999/xlink" x="0px" y="0px"
	 viewBox="0 0 438 438" style="enable-background:new 0 0 438 438;" xml:space="preserve">
<style type="text/css">
	.st0{fill:#FFFFFF;stroke:#000000;stroke-width:0.25;stroke-miterlimit:10;}
</style>
<g>
	<path class="st0" d="M88.1,142.1H74.6V89.2h13.5V142.1z"/>
	<path class="st0" d="M135.8,89.2v11.4h-12v41.4h-13.6v-41.4h-12V89.2H135.8z"/>
	<path class="st0" d="M150.3,89.2h13.5l-9.7,23.6h-11L150.3,89.2z"/>
	<path class="st0" d="M176.5,130.7h19.8c0.5,0,0.9-0.3,0.9-0.7v-7.7c0-0.4-0.3-0.7-0.9-0.7h-13.6c-3.7,0-6.2-2.5-6.2-6.2v-20
		c0-3.7,2.5-6.2,6.2-6.2H210v11.4h-19.1c-0.5,0-0.8,0.4-0.8,0.9v7.8c0,0.3,0.3,0.7,0.8,0.7h13.6c3.7,0,6.2,2.5,6.2,6.2v19.8
		c0,3.7-2.5,6.2-6.2,6.2h-28V130.7z"/>
	<path class="st0" d="M282.1,142.1h-13.6v-13.2h-12v13.2h-13.6V95.4c0-3.7,2.5-6.2,6.2-6.2h26.9c3.7,0,6.2,2.5,6.2,6.2V142.1z
		 M268.5,117.5v-15.9c0-0.9-0.8-1.6-1.9-1.6h-8.5c-0.9,0-1.6,0.7-1.6,1.6v15.9H268.5z"/>
	<path class="st0" d="M296.7,89.2h13.5v41.4H327v11.4h-30.4V89.2z"/>
	<path class="st0" d="M338.6,89.2h13.5v41.4H369v11.4h-30.4V89.2z"/>
	<path class="st0" d="M129.2,177.9v17.8h-18.6V260H89.4v-64.3H70.8v-17.8H129.2z"/>
	<path class="st0" d="M196.4,177.9c5,0,9.2,4,9.2,9.2v37.6c0,5-4.3,9.2-9.2,9.2h-0.6l10.1,26h-20.7L175,234h-9v26h-21.2v-82.1H196.4
		z M184.6,196.8c0-0.6-0.6-1.2-1.1-1.2H166v21.9h17.5c0.5,0,1.1-0.6,1.1-1.1V196.8z"/>
	<path class="st0" d="M248.6,177.9v63.2c0,0.6,0.6,1.1,1.1,1.1h15.4c0.7,0,1.3-0.5,1.3-1.1v-63.2h21.2v72.7c0,5.3-4.1,9.4-9.2,9.4
		h-41.6c-5,0-9.4-4-9.4-9.4v-72.7H248.6z"/>
	<path class="st0" d="M311,177.9h53.6v17.6H332v14.3h28.2v17.5H332v14.8h32.6V260H311V177.9z"/>
</g>
<g>
	<path class="st0" d="M149.8,313.7c-1.4,0-2.4-1-2.4-2.4v-15.5c0-1.4,1-2.4,2.4-2.4h14.5c1.4,0,2.4,1,2.4,2.4V306
		c0,1.4-1,2.4-2.4,2.4h-6.1v-2.8h-2.4v2.8h-2.7v-8.8c0-0.7,0.5-1.2,1.2-1.2h5.3c0.7,0,1.2,0.5,1.2,1.2v6.5h2.3
		c0.2,0,0.4-0.2,0.4-0.4v-9.2c0-0.2-0.2-0.4-0.4-0.4h-12.3c-0.1,0-0.4,0.2-0.4,0.4v14.4c0,0.2,0.2,0.3,0.4,0.3h15.8v2.5H149.8z
		 M158.2,303.3v-2.5c0-0.1-0.1-0.3-0.4-0.3h-1.6c-0.2,0-0.4,0.2-0.4,0.3v2.5H158.2z"/>
	<path class="st0" d="M171.8,309.3h7.6c0.2,0,0.3-0.1,0.3-0.3v-2.9c0-0.1-0.1-0.3-0.3-0.3h-5.2c-1.4,0-2.4-1-2.4-2.4v-7.6
		c0-1.4,1-2.4,2.4-2.4h10.5v4.3h-7.3c-0.2,0-0.3,0.2-0.3,0.3v3c0,0.1,0.1,0.3,0.3,0.3h5.2c1.4,0,2.4,1,2.4,2.4v7.6
		c0,1.4-1,2.4-2.4,2.4h-10.7V309.3z"/>
	<path class="st0" d="M190.1,293.4h12.8v4.3h-7.6v4.6h6.6v4.3h-6.6v7h-5.2V293.4z"/>
	<path class="st0" d="M212.3,302.2v11.5h-4.8v-20.2h5.3l4.1,9.4l3.8-9.4h5.5v20.2h-4.9V302l-3.4,8h-2L212.3,302.2z"/>
	<path class="st0" d="M244.5,293.4c1.4,0,2.4,1,2.4,2.4v15.5c0,1.4-1,2.4-2.4,2.4h-10.4c-1.4,0-2.4-1-2.4-2.4v-15.5
		c0-1.4,1-2.4,2.4-2.4H244.5z M241.6,298.2c0-0.2-0.2-0.3-0.3-0.3h-4.1c-0.1,0-0.3,0.1-0.3,0.3V309c0,0.1,0.2,0.3,0.3,0.3h4.1
		c0.2,0,0.3-0.1,0.3-0.3V298.2z"/>
	<path class="st0" d="M257.2,302.2v11.5h-4.8v-20.2h5.3l4.1,9.4l3.8-9.4h5.5v20.2h-4.9V302l-3.4,8h-2L257.2,302.2z"/>
	<path class="st0" d="M291.7,313.7h-5.2v-5h-4.6v5h-5.2v-17.9c0-1.4,1-2.4,2.4-2.4h10.3c1.4,0,2.4,1,2.4,2.4V313.7z M286.5,304.3
		v-6.1c0-0.4-0.3-0.6-0.7-0.6h-3.2c-0.4,0-0.6,0.3-0.6,0.6v6.1H286.5z"/>
</g>
</svg>
